<svg width="24" height="28" viewBox="0 0 24 28" fill="none" xmlns="http://www.w3.org/2000/svg">
<path d="M23.2587 9.00723C23.2587 4.51824 19.6066 0.86618 15.1176 0.86618H10.0496V7.20656H15.1176C16.111 7.20656 16.9183 8.0139 16.9183 9.00723C16.9183 10.0048 16.111 10.8121 15.1176 10.8121H12.6478H9.20417H0.327637V17.1652H9.20417H12.6478H15.1176C16.111 17.1652 16.9183 17.9725 16.9183 18.9658C16.9183 19.9592 16.111 20.7665 15.1176 20.7665H10.0496V27.1069H15.1176C19.6066 27.1069 23.2587 23.4548 23.2587 18.9658C23.2587 17.0891 22.6162 15.3645 21.5468 13.9865C22.6162 12.6086 23.2587 10.884 23.2587 9.00723Z" fill="#FFB717"/>
<path d="M6.66801 7.21924V7.20656V0.866181V0.8535H4.50214C2.19678 0.8535 0.327637 2.72264 0.327637 5.02801V7.21924H6.66801Z" fill="#FFB717"/>
<path d="M0.327637 20.7581V22.9324C0.327637 25.2377 2.19678 27.1069 4.50214 27.1069H6.66801V20.7665V20.7581H0.327637Z" fill="#FFB717"/>
</svg>
