<svg width="27" height="20" viewBox="0 0 27 20" fill="none" xmlns="http://www.w3.org/2000/svg">
<path d="M26.6407 9.13364L18.0497 0.821139C17.8182 0.604826 17.5082 0.485132 17.1864 0.487838C16.8646 0.490543 16.5568 0.615432 16.3292 0.835604C16.1017 1.05578 15.9726 1.35362 15.9698 1.66497C15.967 1.97633 16.0907 2.2763 16.3143 2.50026L22.8103 8.7857H1.22728C0.901789 8.7857 0.589624 8.91081 0.359463 9.13351C0.129303 9.35621 0 9.65826 0 9.9732C0 10.2881 0.129303 10.5902 0.359463 10.8129C0.589624 11.0356 0.901789 11.1607 1.22728 11.1607H22.8103L16.3143 17.4461C16.1971 17.5557 16.1036 17.6867 16.0393 17.8316C15.9749 17.9765 15.9411 18.1323 15.9397 18.29C15.9382 18.4477 15.9693 18.604 16.031 18.75C16.0927 18.8959 16.1838 19.0285 16.2991 19.14C16.4143 19.2515 16.5513 19.3397 16.7022 19.3994C16.853 19.4591 17.0146 19.4891 17.1776 19.4877C17.3405 19.4864 17.5016 19.4536 17.6513 19.3914C17.801 19.3291 17.9365 19.2387 18.0497 19.1253L26.6407 10.8128C26.8708 10.5901 27 10.2881 27 9.9732C27 9.65832 26.8708 9.35633 26.6407 9.13364Z" fill="white"/>
</svg>
