<svg width="27" height="20" viewBox="0 0 27 20" fill="none" xmlns="http://www.w3.org/2000/svg">
<path d="M0.359331 9.13364L8.95033 0.821139C9.18179 0.604826 9.49181 0.485132 9.8136 0.487838C10.1354 0.490543 10.4432 0.615432 10.6708 0.835604C10.8983 1.05578 11.0274 1.35362 11.0302 1.66497C11.033 1.97633 10.9093 2.2763 10.6857 2.50026L4.18969 8.7857H25.7727C26.0982 8.7857 26.4104 8.91081 26.6405 9.13351C26.8707 9.35621 27 9.65826 27 9.9732C27 10.2881 26.8707 10.5902 26.6405 10.8129C26.4104 11.0356 26.0982 11.1607 25.7727 11.1607H4.18969L10.6857 17.4461C10.8029 17.5557 10.8964 17.6867 10.9607 17.8316C11.0251 17.9765 11.0589 18.1323 11.0603 18.29C11.0618 18.4476 11.0307 18.604 10.969 18.75C10.9073 18.8959 10.8161 19.0285 10.7009 19.14C10.5857 19.2515 10.4487 19.3397 10.2978 19.3994C10.147 19.4591 9.98539 19.4891 9.82243 19.4877C9.65947 19.4864 9.49843 19.4536 9.3487 19.3914C9.19896 19.3291 9.06354 19.2387 8.95033 19.1253L0.359331 10.8128C0.129251 10.5901 0 10.2881 0 9.9732C0 9.65832 0.129251 9.35633 0.359331 9.13364Z" fill="#FFB717"/>
</svg>
