<svg width="152" height="42" viewBox="0 0 152 42" fill="none" xmlns="http://www.w3.org/2000/svg">
<path d="M80.5375 13.5073C80.5375 9.01827 76.8854 5.36621 72.3964 5.36621H67.3284V11.7066H72.3964C73.3898 11.7066 74.1971 12.5139 74.1971 13.5073C74.1971 14.5048 73.3898 15.3122 72.3964 15.3122H69.9266H66.483H57.6064V21.6652H66.483H69.9266H72.3964C73.3898 21.6652 74.1971 22.4725 74.1971 23.4659C74.1971 24.4592 73.3898 25.2665 72.3964 25.2665H67.3284V31.6069H72.3964C76.8854 31.6069 80.5375 27.9549 80.5375 23.4659C80.5375 21.5891 79.895 19.8645 78.8256 18.4866C79.895 17.1086 80.5375 15.384 80.5375 13.5073Z" fill="#FFB717"/>
<path d="M63.9468 11.7193V11.7066V5.3662V5.35352H61.781C59.4756 5.35352 57.6064 7.22266 57.6064 9.52802V11.7193H63.9468Z" fill="#FFB717"/>
<path d="M57.6064 25.2578V27.4321C57.6064 29.7375 59.4756 31.6066 61.781 31.6066H63.9468V25.2663V25.2578H57.6064Z" fill="#FFB717"/>
<path d="M5.94332 22.8375V18.5208H12.1879C13.132 18.5208 13.8941 18.3673 14.4742 18.0602C15.0657 17.7531 15.4979 17.3322 15.7709 16.7976C16.0439 16.263 16.1804 15.6488 16.1804 14.9549C16.1804 14.2611 16.0439 13.6127 15.7709 13.0099C15.4979 12.3957 15.0657 11.9066 14.4742 11.5426C13.8941 11.1672 13.132 10.9795 12.1879 10.9795H7.78599V31.4878H2.41153V6.64584H12.1879C14.1557 6.64584 15.8448 7.00414 17.2553 7.72073C18.6657 8.43733 19.7463 9.42122 20.497 10.6724C21.2477 11.9122 21.6231 13.3284 21.6231 14.9208C21.6231 16.536 21.2477 17.9351 20.497 19.118C19.7463 20.301 18.6657 21.2166 17.2553 21.8649C15.8448 22.5133 14.1557 22.8375 12.1879 22.8375H5.94332ZM29.8981 31.4878H24.7454V13.0269H29.5909L29.8981 17.2753V31.4878ZM35.2896 17.8725C35.0393 17.8384 34.7436 17.8099 34.4024 17.7872C34.0611 17.7531 33.754 17.736 33.481 17.736C32.5824 17.736 31.8431 17.8782 31.263 18.1625C30.6829 18.4355 30.2507 18.845 29.9663 19.391C29.6819 19.937 29.5284 20.6138 29.5056 21.4213L28.499 20.9777C28.499 19.3739 28.7037 17.9464 29.1132 16.6952C29.5227 15.444 30.1256 14.4658 30.9218 13.7606C31.718 13.044 32.6848 12.6857 33.8223 12.6857C34.0839 12.6857 34.3569 12.7028 34.6412 12.7369C34.937 12.771 35.1758 12.8279 35.3578 12.9075L35.2896 17.8725ZM36.7057 22.0868C36.7057 20.2896 37.0469 18.6858 37.7294 17.2753C38.4119 15.8535 39.4072 14.7331 40.7152 13.9142C42.0233 13.0952 43.61 12.6857 45.4755 12.6857C47.3636 12.6857 48.9618 13.0952 50.2698 13.9142C51.5893 14.7331 52.5845 15.8535 53.2556 17.2753C53.9381 18.6858 54.2793 20.2896 54.2793 22.0868V22.445C54.2793 24.2308 53.9381 25.8347 53.2556 27.2565C52.5845 28.6783 51.595 29.7987 50.2869 30.6176C48.9788 31.4252 47.3864 31.829 45.5096 31.829C43.6328 31.829 42.0347 31.4252 40.7152 30.6176C39.4072 29.7987 38.4119 28.6783 37.7294 27.2565C37.0469 25.8347 36.7057 24.2308 36.7057 22.445V22.0868ZM41.8754 22.445C41.8754 23.4119 41.9892 24.2934 42.2167 25.0896C42.4555 25.8858 42.8366 26.5171 43.3598 26.9835C43.8944 27.4498 44.611 27.683 45.5096 27.683C46.3968 27.683 47.102 27.4498 47.6253 26.9835C48.1599 26.5171 48.5409 25.8858 48.7684 25.0896C49.0073 24.2934 49.1267 23.4119 49.1267 22.445V22.0868C49.1267 21.1427 49.0073 20.2725 48.7684 19.4763C48.5409 18.6687 48.1599 18.026 47.6253 17.5483C47.102 17.0706 46.3854 16.8317 45.4755 16.8317C44.5883 16.8317 43.8773 17.0706 43.3427 17.5483C42.8195 18.026 42.4442 18.6687 42.2167 19.4763C41.9892 20.2725 41.8754 21.1427 41.8754 22.0868V22.445Z" fill="white"/>
<path d="M95.3983 13.0269H100.551V31.4878H95.7225L95.3983 27.0347V13.0269ZM97.4628 23.1787C97.4628 24.8394 97.2069 26.3238 96.695 27.6318C96.1946 28.9285 95.4325 29.9522 94.4088 30.703C93.3964 31.4537 92.1168 31.829 90.5699 31.829C88.7499 31.829 87.2712 31.3001 86.1338 30.2423C85.0077 29.1731 84.4447 27.4157 84.4447 24.9702V13.0269H89.5973V25.0043C89.5973 25.6299 89.6997 26.1418 89.9044 26.5399C90.1206 26.9266 90.4163 27.211 90.7917 27.393C91.1784 27.5636 91.6163 27.6489 92.1054 27.6489C93.095 27.6489 93.8685 27.4555 94.4258 27.0688C94.9945 26.6821 95.3927 26.1531 95.6201 25.482C95.859 24.8109 95.9784 24.0545 95.9784 23.2128L97.4628 23.1787ZM109.611 31.4878H104.441V13.0269H109.611V31.4878ZM104.134 8.26671C104.134 7.49324 104.396 6.86196 104.919 6.37285C105.442 5.87237 106.142 5.62213 107.017 5.62213C107.893 5.62213 108.587 5.87237 109.099 6.37285C109.622 6.86196 109.884 7.49324 109.884 8.26671C109.884 9.0288 109.622 9.66009 109.099 10.1606C108.587 10.661 107.893 10.9113 107.017 10.9113C106.142 10.9113 105.442 10.661 104.919 10.1606C104.396 9.66009 104.134 9.0288 104.134 8.26671ZM118.995 31.4878H113.825V5.2809H118.995V31.4878ZM133.77 5.2809H138.957V31.4878H134.299L133.77 27.3759V5.2809ZM122.185 22.1209C122.185 20.2441 122.464 18.6005 123.021 17.19C123.59 15.7682 124.409 14.6649 125.478 13.88C126.559 13.0838 127.873 12.6857 129.42 12.6857C130.864 12.6857 132.07 13.1009 133.037 13.9312C134.015 14.7502 134.783 15.8763 135.34 17.3095C135.909 18.7313 136.301 20.3464 136.517 22.155V22.5815C136.301 24.2991 135.909 25.8574 135.34 27.2565C134.783 28.6555 134.015 29.7702 133.037 30.6006C132.07 31.4195 130.853 31.829 129.385 31.829C127.861 31.829 126.559 31.4252 125.478 30.6176C124.409 29.7987 123.59 28.684 123.021 27.2735C122.464 25.8631 122.185 24.265 122.185 22.4792V22.1209ZM127.338 22.4792C127.338 23.4346 127.446 24.3048 127.662 25.0896C127.878 25.8745 128.231 26.5001 128.72 26.9664C129.209 27.4214 129.869 27.6489 130.699 27.6489C131.518 27.6489 132.189 27.4669 132.712 27.1029C133.236 26.7276 133.634 26.21 133.907 25.5503C134.18 24.8906 134.339 24.1285 134.385 23.264V21.4896C134.362 20.7502 134.265 20.0962 134.094 19.5275C133.935 18.9474 133.708 18.464 133.412 18.0772C133.128 17.6791 132.758 17.3777 132.303 17.173C131.859 16.9682 131.336 16.8658 130.733 16.8658C129.914 16.8658 129.255 17.099 128.754 17.5654C128.254 18.0204 127.89 18.646 127.662 19.4422C127.446 20.227 127.338 21.1199 127.338 22.1209V22.4792ZM142.95 28.9456C142.95 28.1721 143.211 27.5238 143.734 27.0005C144.269 26.4773 144.969 26.2157 145.833 26.2157C146.72 26.2157 147.425 26.4773 147.949 27.0005C148.472 27.5238 148.733 28.1721 148.733 28.9456C148.733 29.7191 148.472 30.3674 147.949 30.8906C147.425 31.4139 146.72 31.6755 145.833 31.6755C144.969 31.6755 144.269 31.4139 143.734 30.8906C143.211 30.3674 142.95 29.7191 142.95 28.9456Z" fill="white"/>
</svg>
