<svg width="152" height="42" viewBox="0 0 152 42" fill="none" xmlns="http://www.w3.org/2000/svg">
<path d="M80.2587 14.0072C80.2587 9.51824 76.6066 5.86618 72.1176 5.86618H67.0496V12.2066H72.1176C73.111 12.2066 73.9183 13.0139 73.9183 14.0072C73.9183 15.0048 73.111 15.8121 72.1176 15.8121H69.6478H66.2042H57.3276V22.1652H66.2042H69.6478H72.1176C73.111 22.1652 73.9183 22.9725 73.9183 23.9658C73.9183 24.9592 73.111 25.7665 72.1176 25.7665H67.0496V32.1069H72.1176C76.6066 32.1069 80.2587 28.4548 80.2587 23.9658C80.2587 22.0891 79.6162 20.3645 78.5468 18.9865C79.6162 17.6086 80.2587 15.884 80.2587 14.0072Z" fill="#FFB717"/>
<path d="M63.668 12.2192V12.2066V5.86618V5.8535H61.5021C59.1968 5.8535 57.3276 7.72264 57.3276 10.028V12.2192H63.668Z" fill="#FFB717"/>
<path d="M57.3276 25.7581V27.9324C57.3276 30.2377 59.1968 32.1069 61.5021 32.1069H63.668V25.7665V25.7581H57.3276Z" fill="#FFB717"/>
<path d="M5.66451 23.3375V19.0209H11.9091C12.8532 19.0209 13.6153 18.8673 14.1954 18.5602C14.7869 18.2531 15.2191 17.8322 15.4921 17.2976C15.7651 16.763 15.9016 16.1488 15.9016 15.4549C15.9016 14.7611 15.7651 14.1127 15.4921 13.5099C15.2191 12.8957 14.7869 12.4066 14.1954 12.0426C13.6153 11.6672 12.8532 11.4795 11.9091 11.4795H7.50718V31.9878H2.13272V7.14585H11.9091C13.8769 7.14585 15.566 7.50415 16.9765 8.22075C18.3869 8.93734 19.4675 9.92124 20.2182 11.1724C20.9689 12.4123 21.3443 13.8284 21.3443 15.4208C21.3443 17.036 20.9689 18.4351 20.2182 19.618C19.4675 20.801 18.3869 21.7166 16.9765 22.365C15.566 23.0133 13.8769 23.3375 11.9091 23.3375H5.66451ZM29.6193 31.9878H24.4666V13.527H29.3121L29.6193 17.7753V31.9878ZM35.0108 18.3725C34.7605 18.3384 34.4648 18.3099 34.1236 18.2872C33.7823 18.2531 33.4752 18.236 33.2022 18.236C32.3036 18.236 31.5643 18.3782 30.9842 18.6626C30.4041 18.9355 29.9719 19.345 29.6875 19.891C29.4031 20.437 29.2496 21.1138 29.2268 21.9214L28.2202 21.4778C28.2202 19.8739 28.4249 18.4464 28.8344 17.1952C29.2439 15.944 29.8467 14.9658 30.643 14.2606C31.4392 13.544 32.406 13.1857 33.5435 13.1857C33.8051 13.1857 34.0781 13.2028 34.3624 13.2369C34.6582 13.271 34.897 13.3279 35.079 13.4075L35.0108 18.3725ZM36.4269 22.5868C36.4269 20.7896 36.7681 19.1858 37.4506 17.7753C38.1331 16.3535 39.1284 15.2331 40.4364 14.4142C41.7445 13.5952 43.3312 13.1857 45.1967 13.1857C47.0848 13.1857 48.683 13.5952 49.991 14.4142C51.3105 15.2331 52.3057 16.3535 52.9768 17.7753C53.6593 19.1858 54.0005 20.7896 54.0005 22.5868V22.9451C54.0005 24.7309 53.6593 26.3347 52.9768 27.7565C52.3057 29.1783 51.3162 30.2987 50.0081 31.1177C48.7 31.9252 47.1076 32.329 45.2308 32.329C43.354 32.329 41.7559 31.9252 40.4364 31.1177C39.1284 30.2987 38.1331 29.1783 37.4506 27.7565C36.7681 26.3347 36.4269 24.7309 36.4269 22.9451V22.5868ZM41.5966 22.9451C41.5966 23.9119 41.7104 24.7934 41.9379 25.5896C42.1767 26.3859 42.5578 27.0171 43.081 27.4835C43.6156 27.9499 44.3322 28.183 45.2308 28.183C46.118 28.183 46.8232 27.9499 47.3464 27.4835C47.881 27.0171 48.2621 26.3859 48.4896 25.5896C48.7284 24.7934 48.8479 23.9119 48.8479 22.9451V22.5868C48.8479 21.6427 48.7284 20.7725 48.4896 19.9763C48.2621 19.1687 47.881 18.5261 47.3464 18.0483C46.8232 17.5706 46.1066 17.3317 45.1967 17.3317C44.3094 17.3317 43.5985 17.5706 43.0639 18.0483C42.5407 18.5261 42.1654 19.1687 41.9379 19.9763C41.7104 20.7725 41.5966 21.6427 41.5966 22.5868V22.9451Z" fill="#2B2B2B"/>
<path d="M95.1195 13.527H100.272V31.9878H95.4437L95.1195 27.5347V13.527ZM97.184 23.6787C97.184 25.3394 96.9281 26.8238 96.4162 28.1318C95.9157 29.4285 95.1537 30.4522 94.1299 31.203C93.1176 31.9537 91.838 32.329 90.291 32.329C88.4711 32.329 86.9924 31.8001 85.855 30.7423C84.7289 29.6731 84.1659 27.9157 84.1659 25.4702V13.527H89.3185V25.5043C89.3185 26.1299 89.4209 26.6418 89.6256 27.0399C89.8418 27.4266 90.1375 27.711 90.5128 27.893C90.8996 28.0636 91.3375 28.1489 91.8266 28.1489C92.8162 28.1489 93.5897 27.9555 94.147 27.5688C94.7157 27.1821 95.1138 26.6532 95.3413 25.9821C95.5802 25.311 95.6996 24.5546 95.6996 23.7128L97.184 23.6787ZM109.332 31.9878H104.162V13.527H109.332V31.9878ZM103.855 8.76672C103.855 7.99326 104.117 7.36197 104.64 6.87287C105.163 6.37239 105.863 6.12215 106.739 6.12215C107.614 6.12215 108.308 6.37239 108.82 6.87287C109.343 7.36197 109.605 7.99326 109.605 8.76672C109.605 9.52882 109.343 10.1601 108.82 10.6606C108.308 11.1611 107.614 11.4113 106.739 11.4113C105.863 11.4113 105.163 11.1611 104.64 10.6606C104.117 10.1601 103.855 9.52882 103.855 8.76672ZM118.716 31.9878H113.546V5.78091H118.716V31.9878ZM133.491 5.78091H138.678V31.9878H134.02L133.491 27.8759V5.78091ZM121.907 22.6209C121.907 20.7441 122.185 19.1005 122.743 17.69C123.311 16.2682 124.13 15.1649 125.199 14.3801C126.28 13.5838 127.594 13.1857 129.141 13.1857C130.585 13.1857 131.791 13.6009 132.758 14.4312C133.736 15.2502 134.504 16.3763 135.061 17.8095C135.63 19.2313 136.022 20.8465 136.238 22.655V23.0816C136.022 24.7991 135.63 26.3574 135.061 27.7565C134.504 29.1556 133.736 30.2703 132.758 31.1006C131.791 31.9196 130.574 32.329 129.107 32.329C127.582 32.329 126.28 31.9252 125.199 31.1177C124.13 30.2987 123.311 29.184 122.743 27.7735C122.185 26.3631 121.907 24.765 121.907 22.9792V22.6209ZM127.059 22.9792C127.059 23.9346 127.167 24.8048 127.383 25.5896C127.599 26.3745 127.952 27.0001 128.441 27.4664C128.93 27.9214 129.59 28.1489 130.42 28.1489C131.239 28.1489 131.91 27.9669 132.434 27.6029C132.957 27.2276 133.355 26.71 133.628 26.0503C133.901 25.3906 134.06 24.6285 134.106 23.764V21.9896C134.083 21.2503 133.986 20.5962 133.816 20.0275C133.656 19.4474 133.429 18.964 133.133 18.5772C132.849 18.1791 132.479 17.8777 132.024 17.673C131.581 17.4682 131.057 17.3659 130.454 17.3659C129.636 17.3659 128.976 17.599 128.475 18.0654C127.975 18.5204 127.611 19.146 127.383 19.9422C127.167 20.727 127.059 21.6199 127.059 22.6209V22.9792ZM142.671 29.4456C142.671 28.6721 142.932 28.0238 143.456 27.5006C143.99 26.9773 144.69 26.7157 145.554 26.7157C146.441 26.7157 147.147 26.9773 147.67 27.5006C148.193 28.0238 148.455 28.6721 148.455 29.4456C148.455 30.2191 148.193 30.8674 147.67 31.3906C147.147 31.9139 146.441 32.1755 145.554 32.1755C144.69 32.1755 143.99 31.9139 143.456 31.3906C142.932 30.8674 142.671 30.2191 142.671 29.4456Z" fill="#2B2B2B"/>
</svg>
