<svg width="11" height="12" viewBox="0 0 11 12" fill="none" xmlns="http://www.w3.org/2000/svg">
<path d="M10.6462 8.6639C10.6161 8.64006 8.43333 7.0667 7.8342 7.17963C7.5482 7.23023 7.38467 7.4253 7.0565 7.8158C7.0037 7.87886 6.87683 8.02993 6.7782 8.13736C6.57081 8.06972 6.36851 7.98738 6.17283 7.89096C5.16286 7.39927 4.34683 6.58324 3.85513 5.57326C3.75865 5.37762 3.67631 5.17531 3.60873 4.9679C3.71653 4.8689 3.8676 4.74203 3.93213 4.68776C4.3208 4.36143 4.51623 4.1979 4.56683 3.91116C4.6706 3.31716 3.09833 1.11936 3.08183 1.09956C3.0105 0.997656 2.9174 0.912879 2.80928 0.851368C2.70116 0.789856 2.58072 0.753147 2.45667 0.743896C1.8194 0.743896 0 3.10413 0 3.5016C0 3.5247 0.0333667 5.87283 2.92893 8.81826C5.87143 11.7105 8.2192 11.7439 8.2423 11.7439C8.64013 11.7439 11 9.9245 11 9.28723C10.9909 9.16361 10.9544 9.04357 10.8932 8.93578C10.832 8.82798 10.7476 8.73512 10.6462 8.6639Z" fill="white"/>
</svg>
