<svg width="8" height="12" viewBox="0 0 8 12" fill="none" xmlns="http://www.w3.org/2000/svg">
<path d="M4 0.743896C2.93957 0.745347 1.92297 1.18041 1.17313 1.95368C0.423286 2.72695 0.00140669 3.77532 0 4.86889C0 7.8303 3.72667 11.5394 3.885 11.6958C3.9158 11.7266 3.95705 11.7439 4 11.7439C4.04295 11.7439 4.0842 11.7266 4.115 11.6958C4.27333 11.5394 8 7.8303 8 4.86889C7.99859 3.77532 7.57671 2.72695 6.82687 1.95368C6.07703 1.18041 5.06043 0.745347 4 0.743896ZM4 6.75952C3.6374 6.75952 3.28294 6.64863 2.98145 6.44089C2.67996 6.23314 2.44498 5.93787 2.30622 5.5924C2.16746 5.24694 2.13115 4.86679 2.20189 4.50005C2.27263 4.1333 2.44724 3.79643 2.70364 3.53202C2.96003 3.26761 3.2867 3.08755 3.64233 3.0146C3.99797 2.94165 4.36659 2.97909 4.70159 3.12218C5.03658 3.26528 5.32291 3.50761 5.52436 3.81852C5.72581 4.12943 5.83333 4.49496 5.83333 4.86889C5.83304 5.37022 5.63979 5.85094 5.29604 6.20543C4.95229 6.55993 4.48614 6.75921 4 6.75952Z" fill="white"/>
</svg>
