<svg width="149" height="35" viewBox="0 0 149 35" fill="none" xmlns="http://www.w3.org/2000/svg">
<path d="M42.8536 26.3608V11.9415H48.3123C49.7543 11.9415 50.9902 12.2024 52.0202 12.7242C53.0501 13.2461 53.8398 14.022 54.3891 15.0519C54.9384 16.0682 55.213 17.3316 55.213 18.8422V19.2542C55.213 20.7922 54.9315 22.09 54.3685 23.1474C53.8054 24.2048 52.9883 25.0082 51.9172 25.5575C50.8598 26.0931 49.5895 26.3608 48.1063 26.3608H42.8536ZM46.5614 23.3122H47.9004C48.5321 23.3122 49.102 23.1817 49.6101 22.9208C50.1319 22.6599 50.5576 22.2342 50.8872 21.6437C51.2168 21.0394 51.3816 20.2429 51.3816 19.2542V18.8422C51.3816 17.9084 51.2305 17.1599 50.9284 16.5969C50.64 16.0338 50.2486 15.6287 49.7543 15.3815C49.2599 15.1206 48.7106 14.9901 48.1063 14.9901H46.5614V23.3122ZM57.1667 26.3608V15.4433H60.0918V16.9265C60.2016 16.6793 60.387 16.4184 60.648 16.1437C60.9089 15.869 61.2247 15.6425 61.5955 15.4639C61.9663 15.2717 62.3783 15.1755 62.8315 15.1755C63.0649 15.1755 63.2503 15.1893 63.3876 15.2167C63.525 15.2442 63.6486 15.2717 63.7584 15.2991V18.0388C63.6898 17.9976 63.5318 17.9495 63.2846 17.8946C63.0375 17.8397 62.7491 17.8122 62.4195 17.8122C61.9388 17.8122 61.5406 17.9084 61.2247 18.1006C60.9226 18.2929 60.696 18.5538 60.545 18.8834C60.4076 19.213 60.339 19.5837 60.339 19.9957V26.3608H57.1667ZM70.1441 26.6286C69.073 26.6286 68.1117 26.4295 67.2603 26.0313C66.4088 25.6193 65.7291 24.9944 65.221 24.1567C64.7266 23.319 64.4794 22.2685 64.4794 21.0051V20.5931C64.4794 19.3846 64.7197 18.3821 65.2004 17.5856C65.681 16.7891 66.3333 16.1918 67.1573 15.7935C67.995 15.3815 68.9219 15.1755 69.9381 15.1755C71.7371 15.1755 73.0967 15.6425 74.0168 16.5763C74.9369 17.4964 75.3969 18.8353 75.3969 20.5931V21.7466H67.734C67.7615 22.2822 67.8851 22.7285 68.1048 23.0856C68.3383 23.4426 68.6335 23.7036 68.9906 23.8684C69.3476 24.0194 69.7322 24.0949 70.1441 24.0949C70.7484 24.0949 71.2222 24.0057 71.5655 23.8272C71.9225 23.6349 72.156 23.3808 72.2658 23.065H75.1909C74.9712 24.2597 74.4287 25.1524 73.5636 25.7429C72.6984 26.3334 71.5586 26.6286 70.1441 26.6286ZM70.0411 17.7092C69.6566 17.7092 69.2927 17.771 68.9494 17.8946C68.6061 18.0182 68.3246 18.2242 68.1048 18.5126C67.8988 18.7872 67.7821 19.1649 67.7546 19.6455H72.2864C72.2864 19.1374 72.1834 18.746 71.9775 18.4714C71.7715 18.183 71.4968 17.9839 71.1535 17.874C70.8239 17.7642 70.4531 17.7092 70.0411 17.7092ZM80.4405 26.6286C79.6577 26.6286 78.9848 26.4776 78.4218 26.1754C77.8724 25.8733 77.4536 25.4613 77.1652 24.9395C76.8768 24.4039 76.7326 23.8134 76.7326 23.168C76.7326 22.0831 77.0622 21.2523 77.7214 20.6755C78.3943 20.0987 79.4036 19.8103 80.7494 19.8103H83.8393V19.3572C83.8393 18.698 83.6814 18.2448 83.3655 17.9976C83.0634 17.7504 82.6377 17.6268 82.0884 17.6268C81.5665 17.6268 81.182 17.7092 80.9348 17.874C80.6876 18.0251 80.5503 18.2791 80.5229 18.6362H77.3506C77.3918 17.977 77.5978 17.3865 77.9686 16.8647C78.3531 16.3428 78.8955 15.9308 79.5959 15.6287C80.31 15.3266 81.1752 15.1755 82.1914 15.1755C83.1527 15.1755 83.9972 15.3197 84.7251 15.6081C85.4529 15.8965 86.0159 16.3634 86.4142 17.0089C86.8262 17.6406 87.0322 18.492 87.0322 19.5631V23.58C87.0322 24.1567 87.0459 24.6648 87.0734 25.1043C87.1008 25.53 87.142 25.9489 87.197 26.3608H84.1689C84.1552 26.1274 84.1346 25.9214 84.1071 25.7429C84.0934 25.5643 84.0865 25.3446 84.0865 25.0837C83.7569 25.5231 83.2969 25.8939 82.7064 26.196C82.1296 26.4844 81.3743 26.6286 80.4405 26.6286ZM81.4704 24.3833C81.9236 24.3833 82.3287 24.3009 82.6858 24.1361C83.0428 23.9713 83.3243 23.7242 83.5303 23.3946C83.7363 23.0513 83.8393 22.6667 83.8393 22.241V21.7878H81.3674C80.9005 21.7878 80.5503 21.9114 80.3169 22.1586C80.0971 22.4058 79.9873 22.6873 79.9873 23.0032C79.9873 23.4152 80.0971 23.7516 80.3169 24.0125C80.5503 24.2597 80.9348 24.3833 81.4704 24.3833ZM88.9907 26.3608V15.4433H91.9776V17.0089C92.2247 16.5282 92.6093 16.1025 93.1311 15.7317C93.6529 15.3609 94.2984 15.1755 95.0674 15.1755C95.9326 15.1755 96.5986 15.3403 97.0655 15.6699C97.5462 15.9995 97.8964 16.4458 98.1161 17.0089C98.3907 16.487 98.8164 16.0544 99.3932 15.7111C99.97 15.3541 100.65 15.1755 101.433 15.1755C102.614 15.1755 103.513 15.512 104.131 16.1849C104.749 16.8441 105.058 17.8328 105.058 19.1512V26.3608H101.886V19.9339C101.886 19.1649 101.762 18.6225 101.515 18.3066C101.281 17.977 100.897 17.8122 100.361 17.8122C100.046 17.8122 99.7503 17.9015 99.4756 18.08C99.2147 18.2448 99.0018 18.4851 98.837 18.801C98.686 19.1168 98.6105 19.4945 98.6105 19.9339V26.3608H95.4382V19.9339C95.4382 19.1649 95.3146 18.6225 95.0674 18.3066C94.834 17.977 94.4426 17.8122 93.8933 17.8122C93.5774 17.8122 93.289 17.9015 93.0281 18.08C92.7672 18.2448 92.5543 18.4851 92.3895 18.801C92.2385 19.1168 92.1629 19.4945 92.1629 19.9339V26.3608H88.9907ZM109.038 26.3608L105.99 15.4433H109.409L110.934 22.1586L112.849 15.4433H115.816L117.875 22.0968L119.585 15.4433H122.675L119.626 26.3608H116.454L114.312 19.2748L112.211 26.3608H109.038ZM129.065 26.6286C127.994 26.6286 127.032 26.4295 126.181 26.0313C125.329 25.6193 124.65 24.9944 124.142 24.1567C123.647 23.319 123.4 22.2685 123.4 21.0051V20.5931C123.4 19.3846 123.64 18.3821 124.121 17.5856C124.602 16.7891 125.254 16.1918 126.078 15.7935C126.916 15.3815 127.843 15.1755 128.859 15.1755C130.658 15.1755 132.017 15.6425 132.937 16.5763C133.857 17.4964 134.318 18.8353 134.318 20.5931V21.7466H126.655C126.682 22.2822 126.806 22.7285 127.025 23.0856C127.259 23.4426 127.554 23.7036 127.911 23.8684C128.268 24.0194 128.653 24.0949 129.065 24.0949C129.669 24.0949 130.143 24.0057 130.486 23.8272C130.843 23.6349 131.077 23.3808 131.186 23.065H134.112C133.892 24.2597 133.349 25.1524 132.484 25.7429C131.619 26.3334 130.479 26.6286 129.065 26.6286ZM128.962 17.7092C128.577 17.7092 128.213 17.771 127.87 17.8946C127.527 18.0182 127.245 18.2242 127.025 18.5126C126.819 18.7872 126.703 19.1649 126.675 19.6455H131.207C131.207 19.1374 131.104 18.746 130.898 18.4714C130.692 18.183 130.417 17.9839 130.074 17.874C129.745 17.7642 129.374 17.7092 128.962 17.7092ZM139.876 26.4844C138.997 26.4844 138.276 26.3814 137.713 26.1754C137.15 25.9557 136.731 25.5643 136.457 25.0013C136.196 24.4245 136.065 23.5937 136.065 22.5088V11.9415H139.237V22.035C139.237 22.7079 139.327 23.1817 139.505 23.4564C139.698 23.7173 140.089 23.8478 140.679 23.8478C140.844 23.8478 140.982 23.8478 141.091 23.8478C141.201 23.834 141.311 23.8203 141.421 23.8066V26.4226C141.284 26.4364 141.133 26.4432 140.968 26.4432C140.817 26.457 140.645 26.4638 140.453 26.4638C140.274 26.4776 140.082 26.4844 139.876 26.4844ZM146.776 26.4844C145.897 26.4844 145.176 26.3814 144.613 26.1754C144.05 25.9557 143.631 25.5643 143.356 25.0013C143.096 24.4245 142.965 23.5937 142.965 22.5088V11.9415H146.137V22.035C146.137 22.7079 146.227 23.1817 146.405 23.4564C146.597 23.7173 146.989 23.8478 147.579 23.8478C147.744 23.8478 147.881 23.8478 147.991 23.8478C148.101 23.834 148.211 23.8203 148.321 23.8066V26.4226C148.184 26.4364 148.032 26.4432 147.868 26.4432C147.717 26.457 147.545 26.4638 147.353 26.4638C147.174 26.4776 146.982 26.4844 146.776 26.4844Z" fill="#636363"/>
<ellipse opacity="0.2" cx="17.1431" cy="17.9209" rx="17.1431" ry="17" fill="#636363"/>
<path d="M25.3717 15.1741V24.2563C25.3712 24.74 25.1784 25.2038 24.8356 25.5458C24.4927 25.8879 24.0279 26.0803 23.5431 26.0807H20.4954C20.1721 26.0807 19.862 25.9526 19.6334 25.7245C19.4048 25.4964 19.2764 25.187 19.2764 24.8644V21.5196C19.2764 21.3583 19.2121 21.2036 19.0978 21.0895C18.9835 20.9755 18.8285 20.9114 18.6668 20.9114H15.6192C15.4575 20.9114 15.3025 20.9755 15.1882 21.0895C15.0739 21.2036 15.0096 21.3583 15.0096 21.5196V24.8644C15.0096 25.187 14.8812 25.4964 14.6526 25.7245C14.424 25.9526 14.1139 26.0807 13.7906 26.0807H10.7429C10.2581 26.0803 9.79325 25.8879 9.45043 25.5458C9.1076 25.2038 8.91479 24.74 8.91431 24.2563V15.1741C8.91476 14.964 8.96946 14.7576 9.07314 14.5749C9.17681 14.3921 9.32594 14.239 9.50616 14.1305L16.5158 9.93417C16.7053 9.82069 16.9221 9.76074 17.1431 9.76074C17.3642 9.76074 17.581 9.82069 17.7705 9.93417L24.7801 14.1305C24.9603 14.239 25.1094 14.3921 25.213 14.5749C25.3166 14.7577 25.3713 14.964 25.3717 15.1741Z" fill="#636363"/>
</svg>
