<svg width="132" height="32" viewBox="0 0 132 32" fill="none" xmlns="http://www.w3.org/2000/svg">
<path d="M25.6681 31.6562V15.7045H33.6668C34.715 15.7045 35.6342 15.9171 36.4241 16.3425C37.2293 16.7679 37.8598 17.3604 38.3156 18.12C38.7713 18.8644 38.9992 19.7304 38.9992 20.7179C38.9992 21.6598 38.7713 22.503 38.3156 23.2474C37.8598 23.9918 37.2293 24.5767 36.4241 25.0021C35.619 25.4275 34.6998 25.6401 33.6668 25.6401H28.9724V31.6562H25.6681ZM28.9724 22.9056H33.3022C34.0162 22.9056 34.5859 22.7081 35.0113 22.3131C35.4518 21.9181 35.6721 21.3939 35.6721 20.7407C35.6721 20.0722 35.4518 19.5405 35.0113 19.1455C34.5859 18.7505 34.0162 18.553 33.3022 18.553H28.9724V22.9056ZM40.9519 31.6562V19.7836H44.0739V21.1053C44.4537 20.5887 44.9095 20.1937 45.4412 19.9203C45.9729 19.6468 46.573 19.5101 47.2415 19.5101C47.8188 19.5253 48.2517 19.6164 48.5404 19.7836V22.5182C48.3125 22.4118 48.0618 22.3358 47.7884 22.2903C47.5149 22.2295 47.2339 22.1991 46.9452 22.1991C46.3375 22.1991 45.783 22.351 45.2817 22.6549C44.7803 22.9587 44.3777 23.3917 44.0739 23.9538V31.6562H40.9519ZM55.575 31.8841C54.39 31.8841 53.319 31.6107 52.3619 31.0638C51.4048 30.5168 50.6452 29.78 50.083 28.8533C49.5209 27.9266 49.2399 26.8859 49.2399 25.7313C49.2399 24.5767 49.5133 23.536 50.0603 22.6093C50.6224 21.6674 51.382 20.923 52.3391 20.3761C53.3114 19.8291 54.39 19.5557 55.575 19.5557C56.76 19.5557 57.8311 19.8291 58.7882 20.3761C59.7605 20.923 60.5201 21.6674 61.067 22.6093C61.6291 23.536 61.9102 24.5767 61.9102 25.7313C61.9102 26.8859 61.6291 27.9266 61.067 28.8533C60.5201 29.78 59.7681 30.5168 58.811 31.0638C57.8538 31.6107 56.7752 31.8841 55.575 31.8841ZM55.575 29.1723C56.1979 29.1723 56.7524 29.0204 57.2386 28.7166C57.7399 28.4127 58.1349 28.0025 58.4236 27.486C58.7274 26.9543 58.8793 26.3694 58.8793 25.7313C58.8793 25.078 58.7274 24.4931 58.4236 23.9766C58.1349 23.4601 57.7399 23.0499 57.2386 22.746C56.7524 22.427 56.1979 22.2675 55.575 22.2675C54.9673 22.2675 54.4128 22.427 53.9115 22.746C53.4101 23.0499 53.0151 23.4601 52.7265 23.9766C52.4378 24.4931 52.2935 25.078 52.2935 25.7313C52.2935 26.3694 52.4378 26.9543 52.7265 27.486C53.0151 28.0025 53.4101 28.4127 53.9115 28.7166C54.4128 29.0204 54.9673 29.1723 55.575 29.1723ZM69.7313 31.8841C68.44 31.8841 67.1791 31.6487 65.9485 31.1777C64.7179 30.6915 63.6241 30.0079 62.667 29.1268L64.5584 26.7568C65.4851 27.5771 66.3739 28.1696 67.2246 28.5343C68.0906 28.8989 69.0021 29.0812 69.9592 29.0812C70.6277 29.0812 71.205 29.0052 71.6911 28.8533C72.1773 28.6862 72.5495 28.4507 72.8078 28.1469C73.0812 27.843 73.2179 27.486 73.2179 27.0758C73.2179 26.5289 73.0205 26.1111 72.6255 25.8225C72.2305 25.5186 71.5544 25.2831 70.5973 25.116L67.4297 24.5691C66.0776 24.3412 65.0446 23.8627 64.3305 23.1334C63.6317 22.4042 63.2823 21.4623 63.2823 20.3077C63.2823 19.3202 63.5329 18.4618 64.0343 17.7326C64.5508 17.0034 65.2724 16.4489 66.1992 16.0691C67.1411 15.6741 68.2577 15.4766 69.549 15.4766C70.7188 15.4766 71.881 15.6741 73.0356 16.0691C74.2054 16.4641 75.2385 17.011 76.1348 17.7098L74.3574 20.171C72.6862 18.8948 71.0075 18.2567 69.3212 18.2567C68.7287 18.2567 68.2121 18.3327 67.7716 18.4846C67.331 18.6366 66.9892 18.8492 66.7461 19.1227C66.5182 19.381 66.4043 19.6924 66.4043 20.057C66.4043 20.5432 66.579 20.923 66.9284 21.1964C67.2778 21.4547 67.8627 21.6522 68.6831 21.7889L71.6911 22.2903C73.2863 22.5485 74.4789 23.0575 75.2689 23.8171C76.0589 24.5615 76.4539 25.549 76.4539 26.7796C76.4539 27.8126 76.1804 28.7166 75.6335 29.4914C75.0866 30.251 74.3042 30.8435 73.2863 31.2688C72.2836 31.679 71.0986 31.8841 69.7313 31.8841ZM83.5003 31.8386C82.1785 31.8386 81.1759 31.5423 80.4922 30.9498C79.8238 30.3421 79.4895 29.461 79.4895 28.3064V22.3814H77.0512V19.7836H79.4895V16.7527L82.6115 16.0463V19.7836H86.007V22.3814H82.6115V27.6683C82.6115 28.2152 82.7331 28.6102 82.9761 28.8533C83.2192 29.0812 83.6446 29.1951 84.2523 29.1951C84.5561 29.1951 84.8296 29.1799 85.0727 29.1495C85.3309 29.104 85.612 29.028 85.9158 28.9217V31.4967C85.5968 31.6031 85.1942 31.6866 84.708 31.7474C84.2371 31.8082 83.8345 31.8386 83.5003 31.8386ZM87.5299 31.6562V19.7836H90.6519V21.1053C91.0317 20.5887 91.4874 20.1937 92.0192 19.9203C92.5509 19.6468 93.151 19.5101 93.8194 19.5101C94.3967 19.5253 94.8297 19.6164 95.1184 19.7836V22.5182C94.8905 22.4118 94.6398 22.3358 94.3664 22.2903C94.0929 22.2295 93.8118 22.1991 93.5232 22.1991C92.9155 22.1991 92.361 22.351 91.8596 22.6549C91.3583 22.9587 90.9557 23.3917 90.6519 23.9538V31.6562H87.5299ZM101.369 31.8841C100.457 31.8841 99.6443 31.6866 98.9302 31.2916C98.2314 30.8814 97.6769 30.3193 97.2667 29.6053C96.8717 28.8913 96.6742 28.0709 96.6742 27.1442V19.7836H99.7962V26.6884C99.7962 27.448 100.016 28.0557 100.457 28.5115C100.913 28.9672 101.521 29.1951 102.28 29.1951C102.797 29.1951 103.26 29.0964 103.67 28.8989C104.096 28.6862 104.445 28.3899 104.718 28.0101V19.7836H107.84V31.6562H104.718V30.6991C103.807 31.4891 102.69 31.8841 101.369 31.8841ZM115.948 31.8841C114.778 31.8841 113.722 31.6183 112.78 31.0865C111.838 30.5396 111.094 29.8028 110.547 28.8761C110 27.9342 109.727 26.8859 109.727 25.7313C109.727 24.5615 110 23.5132 110.547 22.5865C111.094 21.6598 111.838 20.923 112.78 20.3761C113.722 19.8291 114.778 19.5557 115.948 19.5557C116.89 19.5557 117.786 19.738 118.637 20.1026C119.503 20.4672 120.247 20.9913 120.87 21.675L118.956 23.7031C118.515 23.217 118.052 22.86 117.566 22.6321C117.095 22.389 116.578 22.2675 116.016 22.2675C115.409 22.2675 114.862 22.4194 114.376 22.7232C113.905 23.0271 113.525 23.4373 113.236 23.9538C112.963 24.4703 112.826 25.0628 112.826 25.7313C112.826 26.3694 112.963 26.9543 113.236 27.486C113.525 28.0025 113.92 28.4127 114.421 28.7166C114.922 29.0052 115.477 29.1495 116.085 29.1495C116.616 29.1495 117.11 29.0432 117.566 28.8305C118.037 28.6026 118.485 28.2684 118.91 27.8278L120.779 29.7876C120.171 30.4409 119.442 30.9574 118.591 31.3372C117.741 31.7018 116.859 31.8841 115.948 31.8841ZM128.253 31.8386C126.932 31.8386 125.929 31.5423 125.245 30.9498C124.577 30.3421 124.243 29.461 124.243 28.3064V22.3814H121.804V19.7836H124.243V16.7527L127.365 16.0463V19.7836H130.76V22.3814H127.365V27.6683C127.365 28.2152 127.486 28.6102 127.729 28.8533C127.972 29.0812 128.398 29.1951 129.005 29.1951C129.309 29.1951 129.583 29.1799 129.826 29.1495C130.084 29.104 130.365 29.028 130.669 28.9217V31.4967C130.35 31.6031 129.947 31.6866 129.461 31.7474C128.99 31.8082 128.588 31.8386 128.253 31.8386Z" fill="#636363"/>
<path d="M13.2278 4.16406H15.5297V8.6009H13.2278V4.16406Z" fill="#636363"/>
<path d="M7.0105 25.2544H9.31241V31.9334H7.0105V25.2544Z" fill="#636363"/>
<path d="M4.93799 14.6743H7.2399V19.1111H4.93799V14.6743Z" fill="#636363"/>
<path d="M11.1553 25.2544H13.4572V31.9334H11.1553V25.2544Z" fill="#636363"/>
<path d="M13.2278 14.6743H15.5297V19.1111H13.2278V14.6743Z" fill="#636363"/>
<path d="M9.0829 10.47H3.09488V6.26588H0.792969V31.9334H5.16733V23.385H15.3003V31.9334H19.6747V0.0297852H9.0829V10.47ZM9.0829 20.9802H3.09488V12.8047H9.0829V20.9802ZM11.3847 2.29444H17.3728V10.47H11.3847V2.29444ZM11.3847 12.8047H17.3728V20.9802H11.3847V12.8047Z" fill="#636363"/>
</svg>
