<svg width="163" height="27" viewBox="0 0 163 27" fill="none" xmlns="http://www.w3.org/2000/svg">
<path d="M42.1911 26.8877V7.51769H45.7271V17.6057L44.7651 17.2677L53.0071 7.51769H57.4531L49.7311 16.6697L49.9391 14.1737L57.6871 26.8877H53.5271L48.3271 18.3597L45.7271 21.4537V26.8877H42.1911ZM59.8376 26.8877V7.51769H72.7076V10.6377H63.3736V15.6037H72.1876V18.7237H63.3736V23.7677H72.7076V26.8877H59.8376ZM80.2405 26.8877V18.3077L73.7145 7.51769H77.7445L82.7365 15.9417H81.3065L86.2725 7.51769H90.3025L83.8025 18.2817V26.8877H80.2405ZM92.4645 26.8877V7.51769H96.0005V23.7677H104.295V26.8877H92.4645ZM104.996 26.8877L111.678 7.51769H116.254L122.936 26.8877H119.088L117.71 22.7277H110.222L108.818 26.8877H104.996ZM111.236 19.6077H116.696L113.472 9.96169H114.46L111.236 19.6077ZM125.091 26.8877V7.51769H127.847L138.507 21.8697L137.077 22.1557V7.51769H140.613V26.8877H137.831L127.327 12.4317L128.627 12.1457V26.8877H125.091ZM144.363 26.8877V7.51769H150.681C152.726 7.51769 154.503 7.93369 156.011 8.76569C157.536 9.58036 158.715 10.7157 159.547 12.1717C160.379 13.6104 160.795 15.283 160.795 17.1897C160.795 19.079 160.379 20.7604 159.547 22.2337C158.715 23.6897 157.536 24.8337 156.011 25.6657C154.503 26.4804 152.726 26.8877 150.681 26.8877H144.363ZM147.899 23.7677H150.759C152.076 23.7677 153.212 23.499 154.165 22.9617C155.136 22.407 155.89 21.6444 156.427 20.6737C156.964 19.6857 157.233 18.5244 157.233 17.1897C157.233 15.8377 156.964 14.6764 156.427 13.7057C155.89 12.735 155.136 11.981 154.165 11.4437C153.212 10.9064 152.076 10.6377 150.759 10.6377H147.899V23.7677Z" fill="#636363"/>
<path d="M36.9089 9.00034L26.9339 1.12609C26.5313 0.80816 25.9573 0.808302 25.5547 1.12609L24.2854 2.12792L30.8633 7.32057C31.6451 7.93765 32.0935 8.85601 32.0935 9.84019V25.8093C32.0935 26.1873 32.0265 26.5501 31.9044 26.8876H36.2193C36.8266 26.8876 37.319 26.4048 37.319 25.8093V9.84027C37.3189 9.51383 37.1681 9.20497 36.9089 9.00034Z" fill="#636363"/>
<path d="M29.484 9.00034L19.5091 1.12609C19.1065 0.80816 18.5324 0.808302 18.1299 1.12609L16.8606 2.12799L23.4385 7.32057C24.2203 7.93779 24.6687 8.85615 24.6687 9.84027V25.8094C24.6687 26.1874 24.6017 26.5502 24.4796 26.8877H28.7945C29.4017 26.8877 29.8942 26.4049 29.8942 25.8094V9.84027C29.894 9.51383 29.7432 9.20504 29.484 9.00034Z" fill="#636363"/>
<path d="M22.0592 9.00034L12.0842 1.12609C11.6816 0.80816 11.1077 0.808302 10.705 1.12609L0.729198 9.00034C0.46991 9.20497 0.319092 9.51383 0.319092 9.84027V25.8094C0.319092 26.4049 0.811508 26.8877 1.41883 26.8877H8.26785C8.87516 26.8877 9.36758 26.4049 9.36758 25.8094V20.9978C9.36758 19.9022 10.2767 19.0108 11.3941 19.0108C12.5116 19.0108 13.4207 19.9022 13.4207 20.9978V25.8094C13.4207 26.4049 13.9131 26.8877 14.5205 26.8877H15.1069H16.2686H21.3695C21.9768 26.8877 22.4692 26.4049 22.4692 25.8094V9.84027C22.4693 9.51383 22.3185 9.20504 22.0592 9.00034Z" fill="#636363"/>
</svg>
