<svg width="130" height="36" viewBox="0 0 130 36" fill="none" xmlns="http://www.w3.org/2000/svg">
<path d="M39.4851 27.9209L46.8283 9.03445H48.9689L56.2851 27.9209H53.2773L47.9122 13.0448L42.5199 27.9209H39.4851ZM43.8206 23.7209L44.6606 21.2551H51.1096L52.0309 23.7209H43.8206ZM58.5453 27.9209V14.5622H61.2279V18.1661L60.6589 18.2744C60.7492 17.4796 61.0202 16.7932 61.4718 16.2151C61.9414 15.619 62.4924 15.1583 63.1247 14.8332C63.7569 14.4899 64.3802 14.3183 64.9944 14.3183C65.4279 14.3183 65.8344 14.3725 66.2137 14.4809C66.6111 14.5712 67.0085 14.7338 67.406 14.9686L66.1053 17.3532C65.9066 17.2448 65.6537 17.1544 65.3466 17.0822C65.0395 17.0099 64.7505 16.9738 64.4795 16.9738C64.064 16.9738 63.6576 17.0461 63.2602 17.1906C62.8627 17.3351 62.5014 17.5699 62.1763 17.8951C61.8692 18.2203 61.6344 18.6448 61.4718 19.1686C61.3995 19.4215 61.3363 19.7557 61.2821 20.1712C61.246 20.5686 61.2279 21.1196 61.2279 21.8241V27.9209H58.5453ZM74.6609 28.1648C73.6493 28.1648 72.7461 27.9841 71.9512 27.6228C71.1745 27.2435 70.5151 26.7286 69.9732 26.0783C69.4493 25.428 69.0519 24.6873 68.7809 23.8564C68.5099 23.0254 68.3745 22.1493 68.3745 21.228C68.3745 20.3248 68.5099 19.4577 68.7809 18.6267C69.0519 17.7957 69.4493 17.0551 69.9732 16.4048C70.5151 15.7544 71.1745 15.2486 71.9512 14.8873C72.7461 14.508 73.6493 14.3183 74.6609 14.3183C75.9616 14.3183 77.0906 14.6344 78.048 15.2667C79.0235 15.899 79.737 16.8564 80.1887 18.139L77.8583 19.0332C77.6235 18.3286 77.2441 17.7506 76.7203 17.299C76.1964 16.8473 75.5099 16.6215 74.6609 16.6215C73.8299 16.6215 73.1435 16.8473 72.6016 17.299C72.0596 17.7325 71.6622 18.3015 71.4093 19.0061C71.1564 19.6925 71.0299 20.4332 71.0299 21.228C71.0299 22.0228 71.1564 22.7725 71.4093 23.477C71.6622 24.1815 72.0596 24.7506 72.6016 25.1841C73.1435 25.6177 73.8299 25.8344 74.6609 25.8344C75.5099 25.8344 76.1964 25.6177 76.7203 25.1841C77.2441 24.7325 77.6235 24.1454 77.8583 23.4228L80.1887 24.317C79.737 25.6177 79.0235 26.5841 78.048 27.2164C77.0906 27.8486 75.9616 28.1648 74.6609 28.1648ZM83.0488 27.9209V9.03445H85.7314V17.4615L85.1624 17.6512C85.3972 16.9106 85.7405 16.2964 86.1921 15.8086C86.6618 15.3209 87.1947 14.9506 87.7908 14.6977C88.405 14.4448 89.0553 14.3183 89.7418 14.3183C91.223 14.3183 92.3792 14.7519 93.2101 15.619C94.0592 16.468 94.4837 17.7144 94.4837 19.3583V27.9209H91.8282V20.3338C91.8282 19.0512 91.5934 18.1119 91.1237 17.5157C90.6721 16.9196 89.9676 16.6215 89.0101 16.6215C87.9443 16.6215 87.1314 17.0009 86.5714 17.7596C86.0114 18.5003 85.7314 19.6925 85.7314 21.3364V27.9209H83.0488ZM97.9991 27.9209V14.5622H100.655V27.9209H97.9991ZM97.8094 12.259V9.03445H100.817V12.259H97.8094ZM110.069 28.1648C108.985 28.1648 108.045 27.9841 107.251 27.6228C106.456 27.2615 105.796 26.7648 105.272 26.1325C104.749 25.4822 104.351 24.7506 104.08 23.9377C103.827 23.1067 103.701 22.2396 103.701 21.3364C103.701 20.4332 103.827 19.5661 104.08 18.7351C104.333 17.8861 104.712 17.1364 105.218 16.4861C105.724 15.8177 106.356 15.2938 107.115 14.9144C107.892 14.517 108.804 14.3183 109.852 14.3183C110.9 14.3183 111.803 14.499 112.561 14.8603C113.32 15.2035 113.943 15.6912 114.431 16.3235C114.919 16.9377 115.28 17.6332 115.515 18.4099C115.768 19.1867 115.894 20.0086 115.894 20.8757C115.894 20.9661 115.885 21.1377 115.867 21.3906C115.867 21.6254 115.849 21.8512 115.813 22.068H106.356C106.411 23.2603 106.772 24.1815 107.44 24.8319C108.127 25.4641 109.03 25.7803 110.15 25.7803C110.909 25.7803 111.586 25.6628 112.182 25.428C112.778 25.1751 113.329 24.7867 113.835 24.2628L115.461 25.9428C114.937 26.4667 114.395 26.8912 113.835 27.2164C113.293 27.5415 112.715 27.7764 112.101 27.9209C111.505 28.0835 110.827 28.1648 110.069 28.1648ZM113.266 20.7403C113.302 20.5957 113.32 20.4512 113.32 20.3067C113.338 20.1622 113.347 20.0177 113.347 19.8732C113.347 19.4577 113.275 19.0512 113.131 18.6538C112.986 18.2564 112.769 17.9041 112.48 17.597C112.191 17.2719 111.83 17.019 111.396 16.8383C110.981 16.6396 110.493 16.5403 109.933 16.5403C109.192 16.5403 108.56 16.7119 108.036 17.0551C107.512 17.3803 107.106 17.8138 106.817 18.3557C106.546 18.8977 106.383 19.4848 106.329 20.117H114.133L113.266 20.7403ZM123.455 28.1648C122.516 28.1648 121.685 28.0293 120.963 27.7583C120.24 27.4693 119.617 27.108 119.093 26.6744C118.587 26.2228 118.181 25.7622 117.874 25.2925L119.689 23.7209C120.032 24.3351 120.52 24.868 121.152 25.3196C121.803 25.7532 122.579 25.9699 123.483 25.9699C124.277 25.9699 124.901 25.8073 125.352 25.4822C125.822 25.139 126.057 24.6964 126.057 24.1544C126.057 23.7209 125.912 23.3777 125.623 23.1248C125.334 22.8538 124.955 22.637 124.485 22.4744C124.015 22.2938 123.501 22.1403 122.941 22.0138C122.435 21.8693 121.92 21.7067 121.396 21.5261C120.872 21.3454 120.394 21.1196 119.96 20.8486C119.544 20.5596 119.201 20.1983 118.93 19.7648C118.677 19.3132 118.551 18.7622 118.551 18.1119C118.551 16.9738 118.984 16.0615 119.852 15.3751C120.737 14.6706 121.902 14.3183 123.347 14.3183C124.377 14.3183 125.316 14.5351 126.165 14.9686C127.014 15.3841 127.674 16.0073 128.143 16.8383L126.49 18.1119C126.129 17.5157 125.659 17.0822 125.081 16.8112C124.521 16.5403 123.907 16.4048 123.239 16.4048C122.606 16.4048 122.074 16.5403 121.64 16.8112C121.224 17.0641 121.017 17.4164 121.017 17.868C121.017 18.1932 121.107 18.4641 121.288 18.6809C121.486 18.8796 121.784 19.0603 122.182 19.2228C122.597 19.3673 123.103 19.5119 123.699 19.6564C124.259 19.7828 124.828 19.9364 125.406 20.117C125.984 20.2977 126.517 20.5325 127.005 20.8215C127.493 21.1106 127.89 21.499 128.197 21.9867C128.504 22.4744 128.658 23.1067 128.658 23.8835C128.658 24.7325 128.441 25.4822 128.008 26.1325C127.574 26.7648 126.969 27.2615 126.192 27.6228C125.415 27.9841 124.503 28.1648 123.455 28.1648Z" fill="#636363"/>
<path d="M26.2928 34.3204H4.49905C2.44199 34.3204 0.718506 32.6525 0.718506 30.5398V13.6941C0.718506 12.5822 1.21887 11.5259 2.10841 10.8031L13.0053 1.79654C14.3952 0.629018 16.3967 0.629018 17.7866 1.79654L28.6834 10.7475C29.573 11.4703 30.0733 12.5266 30.0733 13.6385V30.4842C30.0733 32.6525 28.3499 34.3204 26.2928 34.3204ZM15.3959 3.18645C15.0623 3.18645 14.6732 3.29764 14.3952 3.52002L3.49832 12.5266C3.16474 12.8046 2.94236 13.2494 2.94236 13.6941V30.5398C2.94236 31.3738 3.60951 32.0965 4.49905 32.0965H26.2928C27.1267 32.0965 27.8495 31.4294 27.8495 30.5398V13.6941C27.8495 13.2494 27.6271 12.8046 27.2935 12.5266L16.3967 3.52002C16.1187 3.29764 15.7295 3.18645 15.3959 3.18645Z" fill="#636363"/>
<path d="M9.24431 26.8008L14.4649 13.3737H15.9867L21.1881 26.8008H19.0497L15.2354 16.2248L11.4019 26.8008H9.24431ZM12.3266 23.8148L12.9238 22.0618H17.5086L18.1636 23.8148H12.3266Z" fill="#636363"/>
</svg>
