<svg width="151" height="32" viewBox="0 0 151 32" fill="none" xmlns="http://www.w3.org/2000/svg">
<path fill-rule="evenodd" clip-rule="evenodd" d="M19.1249 1.87504C17.2657 0.60285 14.8162 0.60285 12.957 1.87504L2.81445 8.81532C1.32662 9.83339 0.437012 11.5201 0.437012 13.3231V26.459C0.437012 29.4755 2.88215 31.9209 5.8984 31.9209H26.1835C29.1998 31.9209 31.6449 29.4755 31.6449 26.459V13.3231C31.6449 11.5201 30.7553 9.83339 29.2675 8.81532L19.1249 1.87504Z" fill="#636363"/>
<path d="M10.7654 24.9531V10.4624H16.8218C18.6796 10.4624 20.0357 10.8588 20.8903 11.6514C21.7449 12.4317 22.1722 13.4844 22.1722 14.8097C22.1722 16.1349 21.7449 17.1938 20.8903 17.9865C20.0481 18.7791 18.692 19.1754 16.8218 19.1754H13.8493V24.9531H10.7654ZM13.8493 16.8346H16.3573C17.1995 16.8346 17.856 16.6922 18.3266 16.4073C18.8096 16.1101 19.0511 15.5837 19.0511 14.8282C19.0511 14.0851 18.8096 13.5649 18.3266 13.2677C17.856 12.9581 17.1995 12.8033 16.3573 12.8033H13.8493V16.8346Z" fill="white"/>
<path d="M40.8589 24.9531V10.4624H46.9153C48.7731 10.4624 50.1292 10.8588 50.9838 11.6514C51.8384 12.4317 52.2657 13.4844 52.2657 14.8097C52.2657 16.1349 51.8384 17.1938 50.9838 17.9865C50.1416 18.7791 48.7855 19.1754 46.9153 19.1754H43.9428V24.9531H40.8589ZM43.9428 16.8346H46.4508C47.293 16.8346 47.9495 16.6922 48.4201 16.4073C48.9031 16.1101 49.1446 15.5837 49.1446 14.8282C49.1446 14.0851 48.9031 13.5649 48.4201 13.2677C47.9495 12.9581 47.293 12.8033 46.4508 12.8033H43.9428V16.8346ZM54.1519 24.9531V13.8065H56.9014V15.85H57.3473C57.4216 15.4785 57.5578 15.1317 57.756 14.8097C57.9666 14.4753 58.2824 14.209 58.7035 14.0108C59.1246 13.8003 59.6881 13.695 60.3941 13.695H60.9885V16.4073H60.1711C59.1184 16.4073 58.3505 16.6736 57.8675 17.2062C57.3968 17.7388 57.1615 18.5376 57.1615 19.6027V24.9531H54.1519ZM62.9192 24.9531V13.8065H65.9288V24.9531H62.9192ZM64.424 12.5246C63.8914 12.5246 63.4889 12.3883 63.2164 12.1159C62.944 11.831 62.8077 11.4656 62.8077 11.0198C62.8077 10.5739 62.944 10.2147 63.2164 9.94227C63.4889 9.65741 63.8914 9.51498 64.424 9.51498C64.9566 9.51498 65.3591 9.65741 65.6315 9.94227C65.904 10.2147 66.0403 10.5739 66.0403 11.0198C66.0403 11.4656 65.904 11.831 65.6315 12.1159C65.3591 12.3883 64.9566 12.5246 64.424 12.5246ZM68.6885 24.9531V13.8065H71.4751V15.4785H71.921C72.1315 14.9459 72.4659 14.4876 72.9242 14.1037C73.3824 13.7198 74.0451 13.5278 74.912 13.5278C75.6799 13.5278 76.3177 13.7012 76.8255 14.048C77.3457 14.3824 77.742 14.8592 78.0145 15.4785H78.4604C78.6833 14.9211 79.0301 14.4567 79.5007 14.0851C79.9714 13.7136 80.6216 13.5278 81.4514 13.5278C82.6528 13.5278 83.5507 13.9179 84.1452 14.6982C84.7397 15.4785 85.0369 16.5374 85.0369 17.875V24.9531H82.0273V18.3766C82.0273 17.6211 81.9035 17.0328 81.6558 16.6117C81.4081 16.1906 81.0055 15.9801 80.4482 15.9801C79.767 15.9801 79.2468 16.2649 78.8877 16.8346C78.5409 17.4043 78.3675 18.1041 78.3675 18.9339V24.9531H75.3579V18.3766C75.3579 17.6211 75.234 17.0328 74.9863 16.6117C74.7386 16.1906 74.3361 15.9801 73.7788 15.9801C73.11 15.9801 72.596 16.2649 72.2368 16.8346C71.8776 17.4043 71.6981 18.1041 71.6981 18.9339V24.9531H68.6885ZM91.419 25.1761C90.3786 25.1761 89.524 24.9284 88.8552 24.4329C88.1864 23.9252 87.691 23.2316 87.369 22.3522C87.047 21.4729 86.886 20.4759 86.886 19.3612C86.886 18.2094 87.047 17.2 87.369 16.333C87.7034 15.4661 88.205 14.7911 88.8738 14.3081C89.5426 13.825 90.3848 13.5835 91.4004 13.5835C92.1807 13.5835 92.8185 13.7383 93.3139 14.048C93.8217 14.3452 94.2056 14.7477 94.4657 15.2555H94.9116V13.8065H97.6983V24.9531H94.9116V23.5041H94.4657C94.2056 23.9747 93.8279 24.371 93.3325 24.693C92.8371 25.0151 92.1992 25.1761 91.419 25.1761ZM92.1992 23.0582C92.9547 23.0582 93.5554 22.73 94.0013 22.0736C94.4595 21.4048 94.6887 20.5068 94.6887 19.3798C94.6887 18.2404 94.4595 17.3424 94.0013 16.686C93.5554 16.0296 92.9547 15.7014 92.1992 15.7014C91.518 15.7014 90.9793 16.011 90.583 16.6303C90.199 17.2371 90.0071 18.1537 90.0071 19.3798C90.0071 20.6059 90.199 21.5286 90.583 22.1479C90.9793 22.7548 91.518 23.0582 92.1992 23.0582ZM104.168 25.1761C103.152 25.1761 102.316 24.9284 101.66 24.4329C101.003 23.9252 100.514 23.2316 100.192 22.3522C99.87 21.4729 99.709 20.4759 99.709 19.3612C99.709 18.2094 99.87 17.2 100.192 16.333C100.526 15.4661 101.022 14.7911 101.678 14.3081C102.347 13.825 103.177 13.5835 104.168 13.5835C104.898 13.5835 105.493 13.7136 105.951 13.9737C106.422 14.2337 106.793 14.5867 107.066 15.0326H107.512V10.0909H110.521V24.9531H107.735V23.5041H107.289C107.029 23.9747 106.651 24.371 106.156 24.693C105.66 25.0151 104.997 25.1761 104.168 25.1761ZM105.022 23.0582C105.778 23.0582 106.378 22.73 106.824 22.0736C107.283 21.4048 107.512 20.5068 107.512 19.3798C107.512 18.2404 107.283 17.3424 106.824 16.686C106.378 16.0296 105.778 15.7014 105.022 15.7014C104.341 15.7014 103.802 16.011 103.406 16.6303C103.022 17.2371 102.83 18.1537 102.83 19.3798C102.83 20.6059 103.022 21.5286 103.406 22.1479C103.802 22.7548 104.341 23.0582 105.022 23.0582ZM118.031 25.2318C116.186 25.2318 114.805 24.7054 113.888 23.6527C112.984 22.5876 112.532 21.1633 112.532 19.3798C112.532 17.5963 112.984 16.1782 113.888 15.1255C114.805 14.0603 116.186 13.5278 118.031 13.5278C119.876 13.5278 121.251 14.0603 122.155 15.1255C123.072 16.1782 123.53 17.5963 123.53 19.3798C123.53 21.1633 123.072 22.5876 122.155 23.6527C121.251 24.7054 119.876 25.2318 118.031 25.2318ZM118.031 23.2254C118.848 23.2254 119.449 22.9034 119.833 22.2593C120.217 21.6153 120.409 20.6493 120.409 19.3612C120.409 18.0855 120.217 17.1319 119.833 16.5002C119.449 15.8562 118.848 15.5342 118.031 15.5342C117.214 15.5342 116.613 15.8562 116.229 16.5002C115.845 17.1319 115.653 18.0855 115.653 19.3612C115.653 20.6493 115.845 21.6153 116.229 22.2593C116.613 22.9034 117.214 23.2254 118.031 23.2254ZM125.532 24.9531V13.8065H128.319V15.4785H128.765C128.988 14.9211 129.328 14.4567 129.786 14.0851C130.257 13.7136 130.944 13.5278 131.849 13.5278C133.087 13.5278 134.016 13.9179 134.635 14.6982C135.255 15.4785 135.564 16.5374 135.564 17.875V24.9531H132.555V18.3766C132.555 17.6087 132.418 17.0204 132.146 16.6117C131.873 16.1906 131.427 15.9801 130.808 15.9801C130.09 15.9801 129.533 16.2649 129.136 16.8346C128.74 17.392 128.542 18.0917 128.542 18.9339V24.9531H125.532ZM141.949 25.1761C140.909 25.1761 140.054 24.9284 139.385 24.4329C138.717 23.9252 138.221 23.2316 137.899 22.3522C137.577 21.4729 137.416 20.4759 137.416 19.3612C137.416 18.2094 137.577 17.2 137.899 16.333C138.234 15.4661 138.735 14.7911 139.404 14.3081C140.073 13.825 140.915 13.5835 141.931 13.5835C142.711 13.5835 143.349 13.7383 143.844 14.048C144.352 14.3452 144.736 14.7477 144.996 15.2555H145.442V13.8065H148.228V24.9531H145.442V23.5041H144.996C144.736 23.9747 144.358 24.371 143.863 24.693C143.367 25.0151 142.729 25.1761 141.949 25.1761ZM142.729 23.0582C143.485 23.0582 144.086 22.73 144.531 22.0736C144.99 21.4048 145.219 20.5068 145.219 19.3798C145.219 18.2404 144.99 17.3424 144.531 16.686C144.086 16.0296 143.485 15.7014 142.729 15.7014C142.048 15.7014 141.509 16.011 141.113 16.6303C140.729 17.2371 140.537 18.1537 140.537 19.3798C140.537 20.6059 140.729 21.5286 141.113 22.1479C141.509 22.7548 142.048 23.0582 142.729 23.0582Z" fill="#636363"/>
</svg>
